<svg width="229" height="202" fill="none" xmlns="http://www.w3.org/2000/svg"><path opacity=".16" d="m185.219 36.935-.588-.682-1.368-.58-3.551.007-.747-.053.552-.582 3.875-3.87.23-.958-2.7-6.366-.912-.59-5.837-.017-2.75 1.23-1.654.746-7.162-.013-.892.886-.012 8.606-.265.937-2.106 2.147-.651-.028-1.157-1.138-1.323-3.326.397-.948 1.69-1.713.014-.972-2.221-2.277-.817.001-3.95 3.876-7.626 7.608-1.635.662-1.432.57-2.299 2.297-.559 1.38.011 2.287-.577.577-1.504-.018-.639-.265-2.671-2.672-1.209-.018-4.645 4.63-.565 1.39.007 7.282-.888.864-6.499.021-1.048.432-8.605 8.587-.3.537.613.156 6.258-.01.945-.398 1.921-1.806 1.907-.364-.223.312-4.824 4.779-.943 2.332.03 1.741-.991 2.364-6.384 6.293-.478 1.17.014 4.755-.476 1.17-1.839 1.821-1.536 3.225.098 7.151-.454 1.294-3.802 3.773-.298.412-10.097 10.031-.48 1.161-.035 1.472.012 1.475-.015.404-.005.042-.061.259-.037.067-.898.216H83.906l-1.204.001-1.733.021-.197.023-.678.327-.16.142-.184.174-.219.209-.26.248-.494.453-.86.948-.382.7-.1.281-.118.557-.027.474.013.293.025.24.012.104.006.052.012.196v.008l-.062.288-.037.045-.729.121-3.565.002-1.189.003-.406.036-.141.049-.106.076-.1.178-.033.13-.032.355-.002 1.143.114.929.395.202.13.013.515.013.324.003.144.005.201.023.253.142.18.788.014.19-.687.631-5.35-.084-2.274.788-.892.969-.933.966-.638.616-.247.186-.141.078-.77.217-2.786.024-.402-.008-.478.083-.105.074-.17.58.035 1.461v.015l-.01.82-.035.651-.011.364v.012l.09.632.823 1.335.135.132.625.577.002.002.187.198.172.421-1.036 1.063-.258.248-.717 1.44-.007.598.888 1.417.772.267 1.985.015.66-.027.107-.014v1.723l-1.751.006-3.28 1.335-.828 1.329.13 2.6 2.496 1.456.748-.195.392.449v.398l-.236.433.236-.071v3.896l-.204.187-.924.231.017.024-1.04.879-.208 1.072-.53 2.726-.108.102-1.007 2.461v.48l1.11 2.684 1.038.004 2.242-2.347.83-.377 2.347-.018 1.217.943-.619.125-.58.64-.04.714-.457.438-2.91-.77-.584-.042-1.068 2.295.033 1.439.462 1.092.984 2.364 1.606 1.578 1.646.659 1.197 2.938 1.325 1.352 9.148-.014.892-.377 2.593-2.597 2.097-.864 1.682-.697 4.362-4.31.773-1.54.44-1.046 1.319-1.394.181-1.174-.792-.299-.011-.001-.525-1.242.017-.006-.122-.244-.383-.906-.016-1.983 1.374-1.499 3.2.844.143.109.57 1.185-.022 2.706 1.29 3.097 1.291 3.025 1.25 1.281.766-.806-.019-6.257.871-2.034 1.321-2.947.609-.599 1.745.001 1.467-1.298.017-.901.781-1.886.577-1.309-1.609-3.838-.303-.292-1.241-3.077.002-.12.657-.63 2.2-.953 1.25-3.097-.514-1.218-1.734-1.765v-7.538l-.478-.478-.126-.312-.008-.017-.141-.282-.019-.033-.154-.255-.03-.047-.165-.231-.044-.058-.175-.211-.058-.066-.187-.196-.069-.071-.206-.19-.073-.065-.3-.246-.659-.774.041-.152.007-.017.631-.692.932-1.491.011-.07-.006-.287-.023-.874.008-.095.067-.443.065-.242.233-.532.15-.23.337-.38.377-.301.199-.342-.199-.378-.499-.513-.007-.007-.517-.499-.243-.27-.061-.129-.021-.129.003-.019.104-.286.207-.246 3.994-4.004.167-.203.343-.813.009-.069 2.15-4.41 2.442-.006 3.287-1.445.314-.739.019-3.069-.653-.648h-1.865l-.862-.889.015-1.321.39-1.012 3.621-3.776.419-.935.121-6.613-1.271-3.055-.018-1.648 2.974-1.218 1.504.008.795-.776-.028-4.09 1.728-4.169 1.985-.858.643-.603-1.296-3.359-.088-.081.035-1.109 1.011-2.35-.009-2.946.234-.772 2.135-2.282.794.009 1.661 1.659.573.45.127-.54.879-2.039.432-1.045.02-2.526.847-.867 4.873.028 3.329-1.413.468-1.177-.009-3.73.694-.624.959.027.77-.82.004-2.947.273-.592 2.338.45 2.831 2.868 3.998 1.695 1 .392 2.417 1.054L156.669 56l1.171-1.183 2.018.616 2.949 1.188h.121l.719-.75 1.372-3.207.172-.168.758-1.79-.016-10.772.632-.718 2.963-1.052 2.557-1.045h.06l2.657 1.092 2.55 1.086.76.757-.001 5.175.215.905 1.544 1.51.041-.725-.005-2.708.457-1.117 4.772-4.762.084-1.397zM59.649 157.909l.018.009v.001l-.018-.01z" fill="#fff"/><path d="M98.228 165.486c-10.22-3.481-28.37-15.634-19.206-36.389M118.275 71.311c-12.804 64.188-29.969 30.105-20.753 77.412" stroke="#CDC196" stroke-width="1.348"/><path d="M61.501 168.181c3.634-12.561 15.057-33.915 31.672-18.842M179.038 32.928c-7.514-1.594-25.874.23-39.209 20.273" stroke="#CDC196" stroke-width="1.348"/><path d="m88.455 150.155 5.391-1.01-1.432-4.97M74.434 131.279l4.72-2.795 2.2 4.681M112.8 75.017l5.644-4.38 3.369 4.38M175.724 29.025l3.454 4.128-4.549 3.032" stroke="#CDC196" stroke-width="1.348"/><path fill="#CDC196" d="M117.433 135.499h32.515v2.19h-32.515zM117.433 140.553h24.428v2.19h-24.428zM117.433 145.607h32.515v2.19h-32.515zM117.433 150.661h24.428v2.19h-24.428zM44 83.778h32.515v2.19H44zM44 88.832h24.428v2.19H44zM44 93.886h32.515v2.19H44zM44 98.94h24.428v2.19H44zM121.812 16h32.515v2.19h-32.515zM121.812 21.054h24.428v2.19h-24.428z"/></svg>