<svg width="229" height="202" fill="none" xmlns="http://www.w3.org/2000/svg"><mask id="b" style="mask-type:luminance" maskUnits="userSpaceOnUse" x="0" y="27" width="224" height="238"><path fill="url(#a)" d="M0 27.75h224v236.5H0z"/></mask><g mask="url(#b)"><path opacity=".16" d="M80.518 200.614c1.008 4.61 2.028 9.272 2.15 13.45.313 10.718-4.912 28.693-9.283 34.34-4.742 6.127-5.017 1.276-5.327-4.192-.216-3.813-.449-7.927-2.225-8.829-1.751-.89-1.871.164-2.117 2.319-.356 3.13-.977 8.58-7.239 13.77-15.734 13.041-27.57 16.443-35.793 3.26-2.44-3.912-1.653-5.542-.983-6.929.68-1.41 1.239-2.569-1.835-5.616-3.608-3.576-2.881-4.657-1.724-6.375.798-1.187 1.8-2.677 1.724-5.502-.075-2.704-.85-4.667-1.482-6.271-.851-2.157-1.447-3.666.26-5.454 2.288-1.641 1.327-2.206-.008-2.992-1.704-1.003-4.02-2.366-.966-6.789 2.717-3.936 3.246-7.225 3.698-10.033.606-3.765 1.073-6.666 6.49-9.104 2.35-1.057 3.225-2.285 4.84-4.551.333-.468.698-.98 1.114-1.544 2.156-2.924 5.04-3.653 7.981-4.397 2.547-.644 5.136-1.299 7.328-3.4 2.116-2.026 2.992-4.402 3.805-6.607l.788-2.017h37.878c-.94.349-2.485.666-4.846.983-9.785 1.317-8.093 5.044-6.467 8.629.754 1.66 1.493 3.288 1.073 4.633-1.963 4.91-.412 12.001 1.166 19.218z" fill="#fff"/><path d="M86.746 103.071c-.808.825-1.874 1.091-2.382.593-.507-.497-.264-1.569.545-2.394.808-.824 1.875-1.09 2.382-.592.508.497.264 1.569-.544 2.393z" fill="#CEC297" fill-opacity=".7"/><path d="M89.685 163.827c1.663 1.54 2.717 2.516.541 3.323H52.348l2.637-3.566c2.066-1.492 3.25-.707 4.433.078 1.742 1.155 3.486 2.311 8.042-3.763 4.033-5.379 4.29-7.838 4.462-9.476.142-1.355.225-2.148 2.342-3.566 3.006-2.014 4.191-1.938 4.885-1.894.75.048.925.059 2.202-2.642 1.147-2.425.862-4.958.597-7.303-.303-2.684-.579-5.123 1.354-6.872.774-.701 2.012-1.612 3.397-2.63 5.092-3.746 12.169-8.951 5.455-10.55-4.736-1.128-1.28-3.228 2.507-5.528 3.041-1.849 6.296-3.826 5.685-5.532-1.37-3.83 3.324-7.382 8.572-8.017 5.247-.634 14.467-6.657 3.29-7.533-6.675-.524-11.718 3.718-15.442 6.85-2.972 2.5-5.104 4.294-6.555 2.392-1.369-1.796 1.756-3.697 5.289-5.847 4.801-2.921 10.356-6.3 6.406-10.495-3.26-3.462 5.392-7.1 7.938-2.299 1.321 2.491 1.282 3.824 1.263 4.459-.007.233-.011.372.056.44.099.098.353.042.98-.096l.065-.014c2.324-.511 2.068-2.263 1.755-4.402-.26-1.776-.558-3.819.55-5.638 1.083-1.78 2.863-2.86 4.619-3.924 2.202-1.334 4.364-2.645 5.067-5.283 1.262-4.743 3.986-9.687 7.037-6.784 3.051 2.903 6.576 5.576 9.296-1.05 1.669-4.067 4.282-3.918 6.39-3.798 1.326.076 2.451.14 3.018-.863.491-.868.027-1.936-.46-3.058-.971-2.235-2.032-4.68 4.172-6.17 4.072-.98 5.154.098 5.84.782.884.882 1.113 1.11 6.237-4.552 6.811-7.526 10.582-6.761 8.994-2.006-1.301 3.898-2.929 6.886-4.12 9.073-1.778 3.262-2.582 4.738.126 4.78 3.08.046 3.25-1.121 3.512-2.916.123-.841.266-1.82.738-2.876 1.479-3.311 3.731-2.42 6.314 0 .205.192.378.358.524.498.424.406.618.592.685.553.057-.032.023-.223-.039-.577-.159-.902-.503-2.86-.002-5.91.552-3.366 1.502-5.231 4.117-4.953 2.615.277 11.54 1.555 9.571 5.81-.708 1.529-1.68 2.956-2.536 4.213-1.528 2.243-2.689 3.948-1.328 4.732.809.465 3.295.214 6.285-.088 4.86-.49 11.049-1.116 13.523.986 3.996 3.394 3.244 6.854-5.006 3.967-2.835-.992-11.139-2.369-4.961 1.134 6.218 3.526.071 4.04-3.473 3.331-1.561-.312-2.79 2.669-3.847 5.233-1.314 3.187-2.362 5.73-3.453.509-.336-1.605-.483-3.087-.613-4.4-.421-4.237-.667-6.714-6.496-5.894-6.078.855-6.205 1.63-7.171 7.538a126.197 126.197 0 0 1-1.021 5.637C173.74 78.535 164.961 84 156.67 81.256c-4.463-1.478-5.887-4.75-7.102-7.546-1.044-2.398-1.934-4.444-4.458-4.702-5.468-.56-11.212 8.427-12.554 18.406-.762 5.666-2.041 4.954-4.058 3.83-1.536-.856-3.5-1.95-5.99-.65-2.979 1.557-3.612 3.786-4.191 5.829-.54 1.905-1.035 3.649-3.347 4.533-4.789 1.831-7.025 7.988-11.999 21.96-2.479 6.963-6.42 12.781-9.943 17.982-3.545 5.235-6.667 9.845-7.453 14.371-.71 4.094 2.131 6.725 4.11 8.558z" fill="#CEC297" fill-opacity=".7"/><path d="M86.746 103.071c-.808.825-1.874 1.091-2.382.593-.507-.497-.264-1.569.545-2.394.808-.824 1.875-1.09 2.382-.592.508.497.264 1.569-.544 2.393z" stroke="#CEC297"/><path d="M89.685 163.827c1.663 1.54 2.717 2.516.541 3.323H52.348l2.637-3.566c2.066-1.492 3.25-.707 4.433.078 1.742 1.155 3.486 2.311 8.042-3.763 4.033-5.379 4.29-7.838 4.462-9.476.142-1.355.225-2.148 2.342-3.566 3.006-2.014 4.191-1.938 4.885-1.894.75.048.925.059 2.202-2.642 1.147-2.425.862-4.958.597-7.303-.303-2.684-.579-5.123 1.354-6.872.774-.701 2.012-1.612 3.397-2.63 5.092-3.746 12.169-8.951 5.455-10.55-4.736-1.128-1.28-3.228 2.507-5.528 3.041-1.849 6.296-3.826 5.685-5.532-1.37-3.83 3.324-7.382 8.572-8.017 5.247-.634 14.467-6.657 3.29-7.533-6.675-.524-11.718 3.718-15.442 6.85-2.972 2.5-5.104 4.294-6.555 2.392-1.369-1.796 1.756-3.697 5.289-5.847 4.801-2.921 10.356-6.3 6.406-10.495-3.26-3.462 5.392-7.1 7.938-2.299 1.321 2.491 1.282 3.824 1.263 4.459-.007.233-.011.372.056.44.099.098.353.042.98-.096l.065-.014c2.324-.511 2.068-2.263 1.755-4.402-.26-1.776-.558-3.819.55-5.638 1.083-1.78 2.863-2.86 4.619-3.924 2.202-1.334 4.364-2.645 5.067-5.283 1.262-4.743 3.986-9.687 7.037-6.784 3.051 2.903 6.576 5.576 9.296-1.05 1.669-4.067 4.282-3.918 6.39-3.798 1.326.076 2.451.14 3.018-.863.491-.868.027-1.936-.46-3.058-.971-2.235-2.032-4.68 4.172-6.17 4.072-.98 5.154.098 5.84.782.884.882 1.113 1.11 6.237-4.552 6.811-7.526 10.582-6.761 8.994-2.006-1.301 3.898-2.929 6.886-4.12 9.073-1.778 3.262-2.582 4.738.126 4.78 3.08.046 3.25-1.121 3.512-2.916.123-.841.266-1.82.738-2.876 1.479-3.311 3.731-2.42 6.314 0 .205.192.378.358.524.498.424.406.618.592.685.553.057-.032.023-.223-.039-.577-.159-.902-.503-2.86-.002-5.91.552-3.366 1.502-5.231 4.117-4.953 2.615.277 11.54 1.555 9.571 5.81-.708 1.529-1.68 2.956-2.536 4.213-1.528 2.243-2.689 3.948-1.328 4.732.809.465 3.295.214 6.285-.088 4.86-.49 11.049-1.116 13.523.986 3.996 3.394 3.244 6.854-5.006 3.967-2.835-.992-11.139-2.369-4.961 1.134 6.218 3.526.071 4.04-3.473 3.331-1.561-.312-2.79 2.669-3.847 5.233-1.314 3.187-2.362 5.73-3.453.509-.336-1.605-.483-3.087-.613-4.4-.421-4.237-.667-6.714-6.496-5.894-6.078.855-6.205 1.63-7.171 7.538a126.197 126.197 0 0 1-1.021 5.637C173.74 78.535 164.961 84 156.67 81.256c-4.463-1.478-5.887-4.75-7.102-7.546-1.044-2.398-1.934-4.444-4.458-4.702-5.468-.56-11.212 8.427-12.554 18.406-.762 5.666-2.041 4.954-4.058 3.83-1.536-.856-3.5-1.95-5.99-.65-2.979 1.557-3.612 3.786-4.191 5.829-.54 1.905-1.035 3.649-3.347 4.533-4.789 1.831-7.025 7.988-11.999 21.96-2.479 6.963-6.42 12.781-9.943 17.982-3.545 5.235-6.667 9.845-7.453 14.371-.71 4.094 2.131 6.725 4.11 8.558z" stroke="#CEC297"/></g><path d="m83.877 37.025-2.565.12c-.16 0-.325-.105-.495-.315-.17-.21-.255-.415-.255-.615 0-.18.285-.295.855-.345.58-.05 1.845-.075 3.795-.075 1.01 0 1.84.11 2.49.33.66.22.99.465.99.735 0 .19-.165.285-.495.285-.33 0-.79-.02-1.38-.06-.59-.04-1.155-.065-1.695-.075.03.1.045.21.045.33 0 .37-.39 2.09-1.17 5.16-.08.32-.2.82-.36 1.5-.16.68-.28 1.155-.36 1.425-.14.53-.265.795-.375.795-.15 0-.32-.11-.51-.33-.18-.23-.27-.46-.27-.69 0-.23.27-1.41.81-3.54.54-2.14.855-3.685.945-4.635zm5.133 3.645-.046-1.125c0-.47.11-.705.33-.705.19 0 .37.125.54.375.18.24.27.53.27.87 0 .33-.01.58-.03.75.87-1.32 1.695-1.98 2.475-1.98.49 0 .735.12.735.36 0 .12-.055.23-.165.33-.11.1-.284.215-.525.345-.53.23-.98.585-1.35 1.065a6.37 6.37 0 0 0-.885 1.605c-.23.6-.414 1.105-.554 1.515-.13.41-.23.73-.3.96-.07.23-.15.455-.24.675-.16.4-.346.6-.555.6-.17 0-.31-.095-.42-.285-.1-.2-.15-.39-.15-.57 0-.19.085-.56.254-1.11.41-1.26.615-2.485.615-3.675zm8.595.72c0-.34-.055-.66-.165-.96-.11-.31-.27-.535-.48-.675-.69.19-1.285.725-1.785 1.605-.49.87-.735 1.69-.735 2.46s.19 1.25.57 1.44c.72-.14 1.33-.63 1.83-1.47.51-.85.765-1.65.765-2.4zm-3.945.135c.35-.78.805-1.42 1.365-1.92.57-.51 1.15-.765 1.74-.765.6 0 1.1.255 1.5.765.4.5.6 1.115.6 1.845 0 .72-.175 1.46-.525 2.22a5.19 5.19 0 0 1-1.455 1.875c-.61.49-1.26.735-1.95.735-.51 0-.935-.235-1.275-.705-.34-.47-.51-1.065-.51-1.785 0-.73.17-1.485.51-2.265zm15.917-2.685c.3 0 .565.21.795.63.24.41.36.88.36 1.41 0 .52-.095 1.2-.285 2.04-.18.84-.425 1.61-.735 2.31s-.615 1.05-.915 1.05c-.21 0-.315-.135-.315-.405 0-.28.17-.955.51-2.025.35-1.08.525-1.935.525-2.565 0-.64-.1-.96-.3-.96-.25 0-.54.22-.87.66-.32.44-.665.97-1.035 1.59l-.6 1.005c-.03.04-.07.1-.12.18-.04.08-.09.165-.15.255-.05.09-.19.36-.42.81-.22.45-.415.805-.585 1.065-.17.25-.32.375-.45.375-.12 0-.255-.08-.405-.24-.15-.16-.225-.31-.225-.45s.09-.43.27-.87c.52-1.3.78-2.51.78-3.63a.953.953 0 0 0-.135-.525c-.09-.15-.19-.225-.3-.225-.11 0-.225.05-.345.15-.12.09-.27.26-.45.51-.18.24-.34.47-.48.69-.14.22-.355.565-.645 1.035-.28.46-.495.805-.645 1.035l-.495.78c-.19.29-.34.515-.45.675-.1.16-.215.335-.345.525-.27.37-.47.555-.6.555-.12 0-.28-.11-.48-.33-.2-.23-.3-.4-.3-.51 0-.12.02-.265.06-.435.04-.17.08-.335.12-.495.05-.16.12-.395.21-.705.1-.32.21-.69.33-1.11.13-.43.225-1.015.285-1.755.07-.75.12-1.295.15-1.635.03-.35.115-.525.255-.525.22 0 .435.115.645.345.22.23.33.46.33.69 0 .88-.33 2.33-.99 4.35 1.12-2.1 1.825-3.345 2.115-3.735.29-.39.54-.705.75-.945.39-.43.785-.645 1.185-.645.24 0 .525.21.855.63.34.41.51.825.51 1.245 0 .42-.06.94-.18 1.56 1.18-2.29 2.25-3.435 3.21-3.435zm6.524 0c.34 0 .66.19.96.57.3.37.45.695.45.975 0 .17-.08.255-.24.255-.11 0-.28-.085-.51-.255-.23-.18-.465-.27-.705-.27-.24 0-.62.14-1.14.42-.51.28-.765.575-.765.885 0 .23.46.625 1.38 1.185.35.22.665.505.945.855.29.34.435.71.435 1.11 0 .39-.275.775-.825 1.155-.54.37-1.175.555-1.905.555-.72 0-1.36-.175-1.92-.525-.55-.35-.825-.68-.825-.99 0-.13.03-.23.09-.3.07-.08.155-.12.255-.12s.24.065.42.195c.54.39 1.1.585 1.68.585.59 0 1.015-.065 1.275-.195.26-.14.39-.32.39-.54 0-.23-.145-.47-.435-.72-.29-.26-.61-.49-.96-.69-.34-.2-.655-.445-.945-.735-.29-.29-.435-.585-.435-.885 0-.53.415-1.08 1.245-1.65.84-.58 1.535-.87 2.085-.87zm8.291 2.52c0 1.17-.435 2.285-1.305 3.345-.86 1.05-1.82 1.575-2.88 1.575-.4 0-.785-.17-1.155-.51-.33.34-.57.51-.72.51-.2 0-.3-.095-.3-.285 0-.11.185-.4.555-.87-.21-.4-.315-.825-.315-1.275 0-.75.19-1.51.57-2.28a5.76 5.76 0 0 1 1.515-1.95c.63-.52 1.275-.78 1.935-.78.48 0 .9.17 1.26.51.39-.36.705-.54.945-.54s.36.1.36.3c0 .15-.18.43-.54.84l-.18.21c.17.37.255.77.255 1.2zM119.427 44v.075c1.12-1.29 1.925-2.225 2.415-2.805.49-.59.825-.98 1.005-1.17a.99.99 0 0 0-.525-.345c-.72.08-1.385.6-1.995 1.56-.6.95-.9 1.845-.9 2.685zm3.855-2.76v-.135a389.54 389.54 0 0 1-3.54 3.93c.14.17.295.275.465.315.53-.02 1.04-.28 1.53-.78.5-.5.88-1.06 1.14-1.68.27-.62.405-1.17.405-1.65zM47.234 105.732c0 .59-.305 1.165-.915 1.725-.61.55-1.4.995-2.37 1.335-.97.33-1.96.495-2.97.495-.59 0-1.12-.165-1.59-.495-.46-.33-.69-.635-.69-.915 0-.29.085-.435.255-.435.04 0 .235.11.585.33.36.21.735.32 1.125.33-.14-.07-.275-.2-.405-.39a1.02 1.02 0 0 1-.18-.54c0-.17.12-.645.36-1.425.74-2.35 1.12-4.155 1.14-5.415h-.12c-.18 0-.365-.11-.555-.33-.19-.23-.285-.415-.285-.555 0-.17.21-.315.63-.435.43-.13.945-.195 1.545-.195 1.4 0 2.48.19 3.24.57.76.38 1.14.93 1.14 1.65 0 .6-.255 1.145-.765 1.635-.5.49-1.235.885-2.205 1.185l.135.015c.84.05 1.53.255 2.07.615.55.36.825.775.825 1.245zm-1.41-4.62c0-.33-.17-.585-.51-.765-.33-.19-.735-.285-1.215-.285-.47 0-1.045.06-1.725.18.28.3.42.59.42.87 0 .27-.175 1.095-.525 2.475.24-.15.615-.32 1.125-.51.51-.2.91-.375 1.2-.525.3-.15.515-.28.645-.39.14-.12.27-.275.39-.465.13-.19.195-.385.195-.585zm.105 4.56c0-.3-.35-.55-1.05-.75a7.077 7.077 0 0 0-2.07-.315c-.27 0-.505-.14-.705-.42-.61 2.41-1.01 3.715-1.2 3.915a8.782 8.782 0 0 0 2.235-.375c.78-.24 1.44-.55 1.98-.93s.81-.755.81-1.125zm7.226-1.245c0-.34-.055-.66-.165-.96-.11-.31-.27-.535-.48-.675-.69.19-1.285.725-1.785 1.605-.49.87-.735 1.69-.735 2.46s.19 1.25.57 1.44c.72-.14 1.33-.63 1.83-1.47.51-.85.765-1.65.765-2.4zm-3.945.135c.35-.78.805-1.42 1.365-1.92.57-.51 1.15-.765 1.74-.765.6 0 1.1.255 1.5.765.4.5.6 1.115.6 1.845 0 .72-.175 1.46-.525 2.22a5.19 5.19 0 0 1-1.455 1.875c-.61.49-1.26.735-1.95.735-.51 0-.935-.235-1.275-.705-.34-.47-.51-1.065-.51-1.785 0-.73.17-1.485.51-2.265zm12.632-6.885c.16 0 .355.15.585.45.24.29.36.565.36.825s-.125 1-.375 2.22c-.25 1.21-.54 2.465-.87 3.765-.72 2.92-1.195 4.38-1.425 4.38-.14 0-.295-.085-.465-.255-.16-.18-.24-.335-.24-.465s.035-.39.105-.78c-.98 1-1.835 1.5-2.565 1.5-.44 0-.84-.2-1.2-.6-.35-.4-.525-.815-.525-1.245 0-.62.165-1.355.495-2.205.34-.86.825-1.64 1.455-2.34.63-.7 1.3-1.05 2.01-1.05.71 0 1.205.425 1.485 1.275.51-2.12.79-3.795.84-5.025 0-.3.11-.45.33-.45zm-1.65 7.365c0-.54-.095-.995-.285-1.365-.18-.37-.4-.555-.66-.555-.43 0-.87.265-1.32.795-.45.53-.81 1.14-1.08 1.83-.26.68-.39 1.27-.39 1.77 0 .18.065.325.195.435.13.11.285.165.465.165.39 0 .915-.28 1.575-.84.67-.56 1.155-1.22 1.455-1.98l.045-.18v-.075zm8.91-.645c0 1.17-.435 2.285-1.305 3.345-.86 1.05-1.82 1.575-2.88 1.575-.4 0-.785-.17-1.155-.51-.33.34-.57.51-.72.51-.2 0-.3-.095-.3-.285 0-.11.185-.4.555-.87-.21-.4-.315-.825-.315-1.275 0-.75.19-1.51.57-2.28a5.76 5.76 0 0 1 1.515-1.95c.63-.52 1.275-.78 1.935-.78.48 0 .9.17 1.26.51.39-.36.705-.54.945-.54s.36.1.36.3c0 .15-.18.43-.54.84l-.18.21c.17.37.255.77.255 1.2zm-4.965 2.64v.075c1.12-1.29 1.925-2.225 2.415-2.805.49-.59.825-.98 1.005-1.17a.99.99 0 0 0-.525-.345c-.72.08-1.385.6-1.995 1.56-.6.95-.9 1.845-.9 2.685zm3.855-2.76v-.135a389.54 389.54 0 0 1-3.54 3.93c.14.17.295.275.465.315.53-.02 1.04-.28 1.53-.78.5-.5.88-1.06 1.14-1.68.27-.62.405-1.17.405-1.65zM31.04 68.329c0-.16.02-.275.06-.345.05-.07.145-.105.285-.105.15 0 .335.125.555.375.22.25.33.515.33.795 0 .7-.43 2.47-1.29 5.31-.43 1.38-.645 2.205-.645 2.475s.13.405.39.405c1.13 0 2.37-.185 3.72-.555.43-.12.685-.18.765-.18.09 0 .15.02.18.06.03.03.045.095.045.195 0 .42-.515.815-1.545 1.185-1.02.37-2.06.555-3.12.555-.48 0-.9-.14-1.26-.42-.35-.28-.525-.61-.525-.99 0-.39.34-1.775 1.02-4.155.69-2.38 1.035-3.915 1.035-4.605zm10.198 5.31c0-.34-.055-.66-.165-.96-.11-.31-.27-.535-.48-.675-.69.19-1.285.725-1.785 1.605-.49.87-.735 1.69-.735 2.46s.19 1.25.57 1.44c.72-.14 1.33-.63 1.83-1.47.51-.85.765-1.65.765-2.4zm-3.945.135c.35-.78.805-1.42 1.365-1.92.57-.51 1.15-.765 1.74-.765.6 0 1.1.255 1.5.765.4.5.6 1.115.6 1.845 0 .72-.175 1.46-.525 2.22a5.19 5.19 0 0 1-1.455 1.875c-.61.49-1.26.735-1.95.735-.51 0-.935-.235-1.275-.705-.34-.47-.51-1.065-.51-1.785 0-.73.17-1.485.51-2.265zm7.292 4.785c-.13 0-.27-.095-.42-.285-.15-.19-.225-.345-.225-.465 0-.12.05-.355.15-.705.5-1.8.84-3.085 1.02-3.855-.43.1-.725.15-.885.15-.16 0-.32-.07-.48-.21-.16-.14-.24-.295-.24-.465 0-.17.225-.32.675-.45.58-.14.98-.23 1.2-.27.1-.48.175-.85.225-1.11.24-1.38.565-2.375.975-2.985.41-.61.965-.915 1.665-.915.5 0 .91.2 1.23.6.32.39.48.855.48 1.395 0 .53-.14.795-.42.795-.24 0-.435-.27-.585-.81-.05-.2-.135-.385-.255-.555-.12-.17-.265-.255-.435-.255-.17 0-.325.08-.465.24-.14.15-.265.37-.375.66-.29.81-.49 1.55-.6 2.22l-.12.525a8.17 8.17 0 0 1 1.095-.075c.37 0 .635.04.795.12.17.08.255.18.255.3 0 .19-.165.335-.495.435-.33.1-.975.23-1.935.39-.71 2.88-1.195 4.595-1.455 5.145-.14.29-.265.435-.375.435zm9.09-4.92c0-.34-.055-.66-.165-.96-.11-.31-.27-.535-.48-.675-.69.19-1.285.725-1.785 1.605-.49.87-.735 1.69-.735 2.46s.19 1.25.57 1.44c.72-.14 1.33-.63 1.83-1.47.51-.85.765-1.65.765-2.4zm-3.945.135c.35-.78.805-1.42 1.365-1.92.57-.51 1.15-.765 1.74-.765.6 0 1.1.255 1.5.765.4.5.6 1.115.6 1.845 0 .72-.175 1.46-.525 2.22a5.19 5.19 0 0 1-1.455 1.875c-.61.49-1.26.735-1.95.735-.51 0-.935-.235-1.275-.705-.34-.47-.51-1.065-.51-1.785 0-.73.17-1.485.51-2.265zm7.892 3.255c0 .19.11.285.33.285.38 0 .84-.105 1.38-.315.55-.22.855-.33.915-.33.18 0 .27.095.27.285 0 .29-.3.625-.9 1.005-.59.38-1.13.57-1.62.57-.48 0-.88-.13-1.2-.39-.32-.27-.48-.545-.48-.825 0-.28.06-.635.18-1.065.12-.44.29-1.015.51-1.725.23-.72.41-1.315.54-1.785-.47.11-.785.165-.945.165-.16 0-.32-.08-.48-.24-.15-.17-.225-.33-.225-.48 0-.24.65-.47 1.95-.69.18-.83.27-1.565.27-2.205 0-.3.1-.45.3-.45.17 0 .38.11.63.33.25.21.375.45.375.72 0 .27-.085.745-.255 1.425.57-.05 1.025-.075 1.365-.075.6 0 .9.13.9.39 0 .15-.165.275-.495.375-.32.1-1 .255-2.04.465-.21.79-.475 1.695-.795 2.715-.32 1.01-.48 1.625-.48 1.845zm10.105-3.45c0 .53-.29.965-.87 1.305-.57.33-1.22.495-1.95.495-.72 0-1.375-.08-1.965-.24-.14.44-.21.835-.21 1.185 0 .34.105.605.315.795.22.19.575.285 1.065.285.5 0 1.01-.085 1.53-.255.53-.18.82-.27.87-.27.26 0 .39.1.39.3 0 .27-.305.565-.915.885-.61.31-1.205.465-1.785.465-.78 0-1.415-.23-1.905-.69-.49-.47-.735-1.06-.735-1.77s.19-1.45.57-2.22c.38-.78.87-1.435 1.47-1.965s1.195-.795 1.785-.795c.59 0 1.125.28 1.605.84.49.56.735 1.11.735 1.65zm-2.265-1.305c-.37 0-.755.195-1.155.585-.4.38-.74.855-1.02 1.425.4.09.855.135 1.365.135s.955-.08 1.335-.24c.38-.17.57-.39.57-.66s-.125-.545-.375-.825c-.24-.28-.48-.42-.72-.42zm4.503 3.645c.96-1.63 1.74-2.84 2.34-3.63.61-.8 1.105-1.2 1.485-1.2.39 0 .755.205 1.095.615.35.41.525.845.525 1.305 0 .72-.165 1.6-.495 2.64-.6 1.92-1.14 2.88-1.62 2.88-.22 0-.33-.15-.33-.45 0-.21.105-.635.315-1.275.22-.65.42-1.285.6-1.905.19-.63.285-1.1.285-1.41 0-.32-.05-.555-.15-.705-.09-.15-.185-.225-.285-.225-.09 0-.185.03-.285.09-.1.06-.215.16-.345.3-.12.14-.235.28-.345.42-.11.13-.25.32-.42.57-.16.25-.295.465-.405.645-.11.17-.27.42-.48.75-.21.33-.37.58-.48.75-.11.17-.255.4-.435.69-.18.29-.325.515-.435.675-.1.16-.215.335-.345.525-.25.37-.45.555-.6.555-.14 0-.305-.11-.495-.33-.19-.23-.285-.43-.285-.6 0-.05.035-.185.105-.405.19-.58.4-1.295.63-2.145.23-.86.355-1.835.375-2.925.03-.73.135-1.095.315-1.095.22 0 .44.115.66.345.22.23.33.485.33.765 0 .27-.085.8-.255 1.59-.16.78-.35 1.51-.57 2.19z" fill="#CEC297"/><g opacity=".4" stroke="#D1C69C" stroke-linecap="round"><path d="M76.025 107.18c2.686 2.384 10.09 4.785 16.695-1.338"/><path d="m90.011 104.702 3.275 1.108-1.525 3.329" stroke-linejoin="round"/></g><g opacity=".4" stroke="#D1C69C" stroke-linecap="round"><path d="M130.141 44.08c3.106-1.804 7.477 1.512 9.845 3.67"/><path d="m136.572 48.408 3.963-.513-1.479-3.767" stroke-linejoin="round"/></g><g opacity=".4" stroke="#D1C69C" stroke-linecap="round"><path d="M81.553 75.814c3.788-.463 11.429 2.88 12.63 8.79"/><path d="m90.597 83.757 3.83.977.81-3.574" stroke-linejoin="round"/></g><g clip-path="url(#c)"><circle cx="144.5" cy="53.5" r="4" fill="#243C2B" stroke="#CEC297"/></g><g clip-path="url(#d)"><circle cx="99.5" cy="102.5" r="4" fill="#243C2B" stroke="#CEC297"/></g><defs><clipPath id="c"><path fill="#fff" transform="translate(140 49)" d="M0 0h9v9H0z"/></clipPath><clipPath id="d"><path fill="#fff" transform="translate(95 98)" d="M0 0h9v9H0z"/></clipPath><linearGradient id="a" x1="112" y1="27.75" x2="112" y2="264.25" gradientUnits="userSpaceOnUse"><stop offset=".589" stop-color="#fff"/><stop offset="1" stop-color="#fff" stop-opacity="0"/></linearGradient></defs></svg>