<svg width="28" height="27" fill="none" xmlns="http://www.w3.org/2000/svg"><path d="M12.936 3.226V.75m6.677 5.13 1.58-1.608M6.291 5.88l-1.58-1.608M.75 12.537h2.191m13.926-3.925a5.552 5.552 0 0 0-9.479 3.925m1.847 4.358c.715 0 1.388.147 1.976.442a6.072 6.072 0 0 1 5.994-5.144c3.302 0 5.993 2.657 6.078 5.945a4.035 4.035 0 0 1 3.511 4.027 4.043 4.043 0 0 1-4.037 4.047H9.235a4.655 4.655 0 0 1-4.647-4.658 4.654 4.654 0 0 1 4.647-4.66v.001z" stroke="#333" stroke-width="1.5" stroke-linecap="round" stroke-linejoin="round"/></svg>