<svg width="229" height="202" fill="none" xmlns="http://www.w3.org/2000/svg"><g clip-path="url(#a)"><path opacity=".16" d="m383.855-173.958-1.376-1.596-3.201-1.358-8.31.018-1.75-.124 1.293-1.362 9.068-9.06.54-2.241-6.321-14.899-2.134-1.38-13.66-.04-6.438 2.877-3.87 1.747-16.762-.03-2.088 2.074-.028 20.142-.621 2.193-4.93 5.026-1.522-.067-2.707-2.663-3.097-7.784.928-2.219 3.955-4.009.033-2.276-5.199-5.328-1.912.002-9.245 9.07-17.847 17.807-3.827 1.55-3.351 1.335-5.38 5.375-1.309 3.231.025 5.351-1.351 1.35-3.519-.041-1.495-.62-6.252-6.254-2.83-.042-10.871 10.838-1.322 3.251.016 17.044-2.078 2.023-15.212.048-2.451 1.01-20.141 20.099-.701 1.255 1.433.367 14.649-.026 2.21-.93 4.497-4.227 4.462-.852-.522.73-11.29 11.186-2.207 5.457.069 4.075-2.319 5.534-14.94 14.728-1.119 2.74.033 11.127-1.115 2.74-4.303 4.261-3.596 7.548.23 16.735-1.062 3.03-8.899 8.83-.697.965-23.633 23.477-1.123 2.717-.083 3.444.03 3.453-.035.945-.011.1-.144.605-.088.157-2.099.505h-1.549l-4.648.001-2.817.001-4.057.05-.461.054-1.585.766-.376.331-.432.407-.51.49-.612.581-1.154 1.059-2.015 2.22-.892 1.637-.233.657-.277 1.306-.063 1.11.032.683.057.564.028.241.013.124.029.457v.018l-.144.676-.088.106-1.705.281-8.345.007-2.781.005-.953.084-.329.116-.248.178-.232.416-.08.305-.074.83-.004 2.676.268 2.173.924.472.302.032 1.206.03.76.007.335.013.472.053.591.333.423 1.843.031.444-1.607 1.48-12.52-.199-5.325 1.845-2.086 2.267-2.186 2.263-1.491 1.44-.578.434-.332.185-1.802.506-6.519.057-.942-.019-1.118.194-.246.175-.397 1.356.08 3.42v.034l-.023 1.92-.082 1.523-.025.853-.001.028.213 1.48 1.926 3.123.314.31 1.463 1.349.006.006.438.463.403.986-2.427 2.486-.603.582-1.677 3.37-.018 1.4 2.08 3.316 1.805.626 4.647.035 1.546-.064.25-.033v4.032l-4.1.015-7.675 3.124-1.939 3.11.305 6.086 5.842 3.408 1.75-.456.918 1.049v10.897l-.478.438-2.162.54.038.057-2.433 2.057-.487 2.51-1.24 6.381-.254.237-2.357 5.76-.001 1.124 2.6 6.282 2.429.009 5.247-5.493 1.945-.881 5.492-.043 2.846 2.208-1.447.292-1.36 1.498-.09 1.67-1.071 1.026-6.809-1.802-1.37-.099-2.498 5.371.077 3.368 1.08 2.556 2.305 5.534 3.76 3.693 3.852 1.543 2.8 6.874 3.101 3.165 21.411-.032 2.087-.883 6.07-6.077 4.907-2.024 3.937-1.63 10.209-10.088 1.809-3.605 1.031-2.447 3.085-3.264.425-2.747-1.855-.7-.026-.002-1.228-2.908.041-.014-.287-.569-.895-2.121-.038-4.641 3.217-3.509 7.489 1.976.334.255 1.336 2.773-.054 6.332 3.019 7.251 3.023 7.079 2.927 2.999 1.79-1.887-.043-14.645 2.039-4.761 3.091-6.897 1.424-1.401 4.084.001 3.434-3.038.041-2.107 1.827-4.414 1.351-3.064-3.767-8.984-.707-.683-2.906-7.202.005-.281 1.538-1.473 5.149-2.232 2.925-7.248-1.202-2.852-4.059-4.128V63.424l-1.119-1.12-.295-.728-.019-.04-.331-.66-.042-.078-.361-.597-.071-.11-.386-.54-.104-.136-.409-.493-.135-.156-.437-.458-.162-.165-.483-.445-.169-.154-.704-.575-1.543-1.811.098-.356.016-.04 1.475-1.618 2.182-3.492.025-.164-.013-.67-.054-2.045.019-.224.158-1.036.151-.567.545-1.245.351-.538.788-.89.883-.704.467-.8-.467-.886-1.168-1.2-.015-.016-1.212-1.168-.568-.631-.142-.303-.049-.3.007-.045.244-.67.483-.576 9.348-9.37.392-.477.801-1.902.021-.162 5.032-10.322 5.717-.012 7.692-3.383.736-1.73.043-7.182-1.527-1.517h-4.366l-2.017-2.082.035-3.092.914-2.366 8.475-8.84.98-2.186.283-15.478-2.974-7.151-.042-3.857 6.96-2.85 3.52.017 1.86-1.816-.066-9.57 4.045-9.759 4.645-2.008 1.506-1.413-3.034-7.86-.206-.19.083-2.595 2.366-5.499-.022-6.896.548-1.806 4.997-5.343 1.859.022 3.886 3.883 1.342 1.053.297-1.265 2.058-4.77 1.011-2.446.047-5.913 1.982-2.03 11.405.066 7.79-3.307 1.097-2.754-.021-8.732 1.623-1.459 2.246.064 1.8-1.918.011-6.9.639-1.384 5.472 1.053 6.625 6.713 9.357 3.966 2.34.917 5.658 2.466 2.823-2.939 2.739-2.767 4.724 1.441 6.903 2.779.282-.001 1.684-1.753 3.21-7.506.402-.393 1.775-4.189-.037-25.213 1.48-1.679 6.934-2.462 5.983-2.446h.141l6.219 2.556 5.969 2.54 1.778 1.772-.001 12.113.503 2.118 3.613 3.533.096-1.695-.012-6.338 1.07-2.616 11.167-11.144.197-3.271zM89.965 109.177l.042.023v.002l-.043-.025z" fill="#fff"/><path d="M81.305 137.427h56.276V27.867l-.136.121-.432.407-.511.49-.612.581-1.154 1.059-2.013 2.22-.895 1.637-.233.657-.277 1.306-.062 1.11.031.683.057.564.026.241.014.124.03.457-.145.694-.088.106-1.705.281-8.342.007-2.784.005-.952.084-.33.116-.247.178-.233.416-.079.305-.075.83-.005 2.676.269 2.173.925.472.304.032 1.202.03.762.007.335.013.472.053.59.333.423 1.843.03.444-1.603 1.479-12.523-.198-5.325 1.845-2.084 2.267-2.184 2.263-1.494 1.44-.577.434-.334.185-1.802.506-6.519.057-.943-.019-1.114.194-.247.175-.4 1.356.083 3.42v.034l-.022 1.92-.084 1.523-.026.853.211 1.508 1.93 3.123.312.31 1.463 1.349.445.47.4.985-2.427 2.486-.603.582-1.674 3.37-.017 1.4 2.079 3.316 1.806.625 4.647.036 1.546-.064.246-.033v4.032l-4.096.015-7.678 3.124-1.938 3.11.304 6.086 5.841 3.408 1.753-.456.916 1.049v10.897l-.475.438-2.163.54.035.057-2.431 2.057-1.727 8.891-.255.237-1.688 4.123z" fill="#CEC297" fill-opacity=".7" stroke="#CEC297"/><path d="M36.234 87.65c0 .59-.305 1.165-.915 1.725-.61.55-1.4.995-2.37 1.335-.97.33-1.96.495-2.97.495-.59 0-1.12-.165-1.59-.495-.46-.33-.69-.635-.69-.915 0-.29.085-.435.255-.435.04 0 .235.11.585.33.36.21.735.32 1.125.33-.14-.07-.275-.2-.405-.39a1.02 1.02 0 0 1-.18-.54c0-.17.12-.645.36-1.425.74-2.35 1.12-4.155 1.14-5.415h-.12c-.18 0-.365-.11-.555-.33-.19-.23-.285-.415-.285-.555 0-.17.21-.315.63-.435.43-.13.945-.195 1.545-.195 1.4 0 2.48.19 3.24.57.76.38 1.14.93 1.14 1.65 0 .6-.255 1.145-.765 1.635-.5.49-1.235.885-2.205 1.185l.135.015c.84.05 1.53.255 2.07.615.55.36.825.775.825 1.245zm-1.41-4.62c0-.33-.17-.585-.51-.765-.33-.19-.735-.285-1.215-.285-.47 0-1.045.06-1.725.18.28.3.42.59.42.87 0 .27-.175 1.095-.525 2.475.24-.15.615-.32 1.125-.51.51-.2.91-.375 1.2-.525.3-.15.515-.28.645-.39.14-.12.27-.275.39-.465.13-.19.195-.385.195-.585zm.105 4.56c0-.3-.35-.55-1.05-.75a7.077 7.077 0 0 0-2.07-.315c-.27 0-.505-.14-.705-.42-.61 2.41-1.01 3.715-1.2 3.915a8.782 8.782 0 0 0 2.235-.375c.78-.24 1.44-.55 1.98-.93s.81-.755.81-1.125zm8.681-1.305c0 .53-.29.965-.87 1.305-.57.33-1.22.495-1.95.495-.72 0-1.375-.08-1.965-.24-.14.44-.21.835-.21 1.185 0 .34.105.605.315.795.22.19.575.285 1.065.285.5 0 1.01-.085 1.53-.255.53-.18.82-.27.87-.27.26 0 .39.1.39.3 0 .27-.305.565-.915.885-.61.31-1.205.465-1.785.465-.78 0-1.415-.23-1.905-.69-.49-.47-.735-1.06-.735-1.77s.19-1.45.57-2.22c.38-.78.87-1.435 1.47-1.965s1.195-.795 1.785-.795c.59 0 1.125.28 1.605.84.49.56.735 1.11.735 1.65zm-2.265-1.305c-.37 0-.755.195-1.155.585-.4.38-.74.855-1.02 1.425.4.09.855.135 1.365.135s.955-.08 1.335-.24c.38-.17.57-.39.57-.66s-.125-.545-.375-.825c-.24-.28-.48-.42-.72-.42zm3.933.645-.045-1.125c0-.47.11-.705.33-.705.19 0 .37.125.54.375.18.24.27.53.27.87 0 .33-.01.58-.03.75.87-1.32 1.695-1.98 2.475-1.98.49 0 .735.12.735.36 0 .12-.055.23-.165.33-.11.1-.285.215-.525.345-.53.23-.98.585-1.35 1.065a6.37 6.37 0 0 0-.885 1.605c-.23.6-.415 1.105-.555 1.515-.13.41-.23.73-.3.96-.07.23-.15.455-.24.675-.16.4-.345.6-.555.6-.17 0-.31-.095-.42-.285-.1-.2-.15-.39-.15-.57 0-.19.085-.56.255-1.11.41-1.26.615-2.485.615-3.675zm10.006 1.56c0 .4-.175.855-.525 1.365-.27.61-.56 1.49-.87 2.64-.31 1.14-.57 1.955-.78 2.445-.42 1.02-1.065 1.53-1.935 1.53-.71 0-1.31-.195-1.8-.585-.48-.38-.72-.76-.72-1.14a.9.9 0 0 1 .15-.48c.09-.16.185-.24.285-.24.11 0 .23.075.36.225.13.15.25.31.36.48.12.18.295.345.525.495.24.15.47.225.69.225.22 0 .385-.035.495-.105a.94.94 0 0 0 .315-.315c.1-.14.185-.285.255-.435.07-.14.145-.345.225-.615.09-.26.16-.485.21-.675a605.344 605.344 0 0 1 .435-1.635c-.78.58-1.415.87-1.905.87s-.915-.195-1.275-.585c-.36-.4-.54-.86-.54-1.38 0-.53.195-1.23.585-2.1.4-.87.935-1.65 1.605-2.34.67-.69 1.325-1.035 1.965-1.035.41 0 .755.155 1.035.465.46.51.69 1.235.69 2.175 0 .12-.005.205-.015.255.12.17.18.335.18.495zm-4.83 2.235c0 .17.055.31.165.42.11.1.25.15.42.15.5 0 1.09-.295 1.77-.885.68-.6 1.16-1.295 1.44-2.085-.04-.13-.075-.33-.105-.6-.03-.27-.06-.485-.09-.645a1.39 1.39 0 0 0-.195-.48c-.1-.17-.23-.255-.39-.255-.39 0-.83.28-1.32.84a7.839 7.839 0 0 0-1.215 1.875c-.32.69-.48 1.245-.48 1.665zm11.994-3.135c0 .53-.29.965-.87 1.305-.57.33-1.22.495-1.95.495-.72 0-1.375-.08-1.965-.24-.14.44-.21.835-.21 1.185 0 .34.105.605.315.795.22.19.575.285 1.065.285.5 0 1.01-.085 1.53-.255.53-.18.82-.27.87-.27.26 0 .39.1.39.3 0 .27-.305.565-.915.885-.61.31-1.205.465-1.785.465-.78 0-1.415-.23-1.905-.69-.49-.47-.735-1.06-.735-1.77s.19-1.45.57-2.22c.38-.78.87-1.435 1.47-1.965s1.195-.795 1.785-.795c.59 0 1.125.28 1.605.84.49.56.735 1.11.735 1.65zm-2.265-1.305c-.37 0-.755.195-1.155.585-.4.38-.74.855-1.02 1.425.4.09.855.135 1.365.135s.955-.08 1.335-.24c.38-.17.57-.39.57-.66s-.125-.545-.375-.825c-.24-.28-.48-.42-.72-.42zm4.503 3.645c.96-1.63 1.74-2.84 2.34-3.63.61-.8 1.105-1.2 1.485-1.2.39 0 .755.205 1.095.615.35.41.525.845.525 1.305 0 .72-.165 1.6-.495 2.64-.6 1.92-1.14 2.88-1.62 2.88-.22 0-.33-.15-.33-.45 0-.21.105-.635.315-1.275.22-.65.42-1.285.6-1.905.19-.63.285-1.1.285-1.41 0-.32-.05-.555-.15-.705-.09-.15-.185-.225-.285-.225-.09 0-.185.03-.285.09-.1.06-.215.16-.345.3-.12.14-.235.28-.345.42-.11.13-.25.32-.42.57-.16.25-.295.465-.405.645-.11.17-.27.42-.48.75-.21.33-.37.58-.48.75-.11.17-.255.4-.435.69-.18.29-.325.515-.435.675-.1.16-.215.335-.345.525-.25.37-.45.555-.6.555-.14 0-.305-.11-.495-.33-.19-.23-.285-.43-.285-.6 0-.05.035-.185.105-.405.19-.58.4-1.295.63-2.145.23-.86.355-1.835.375-2.925.03-.73.135-1.095.315-1.095.22 0 .44.115.66.345.22.23.33.485.33.765 0 .27-.085.8-.255 1.59-.16.78-.35 1.51-.57 2.19zM10.422 48.015c0 .19-.44.41-1.32.66.08 1.04.12 1.925.12 2.655 0 1.26-.165 1.89-.495 1.89-.18 0-.32-.105-.42-.315-.09-.21-.16-.575-.21-1.095-.15-1.79-.23-2.73-.24-2.82-1.46.38-2.425.64-2.895.78-.88 2.3-1.405 3.45-1.575 3.45-.16 0-.335-.095-.525-.285-.18-.2-.27-.41-.27-.63 0-.07.29-.785.87-2.145a.972.972 0 0 1-.225.015c-.12 0-.26-.065-.42-.195a.611.611 0 0 1-.225-.48c0-.2.495-.46 1.485-.78.16-.36.32-.76.48-1.2.17-.45.465-1.18.885-2.19.43-1.01.69-1.635.78-1.875.1-.24.285-.455.555-.645.28-.2.55-.3.81-.3.31 0 .585.495.825 1.485.25.99.45 2.215.6 3.675.28-.03.52-.045.72-.045.46 0 .69.13.69.39zm-4.92.315c.75-.2 1.5-.36 2.25-.48-.18-1.71-.355-2.99-.525-3.84a99.313 99.313 0 0 0-1.725 4.32zm3.765-8.025c0 .38-.15.74-.45 1.08-.29.33-.62.495-.99.495-.36 0-.655-.125-.885-.375-.23-.25-.345-.57-.345-.96s.145-.75.435-1.08c.3-.34.635-.51 1.005-.51.37 0 .665.13.885.39.23.25.345.57.345.96zm-.885.09c0-.19-.04-.335-.12-.435a.323.323 0 0 0-.285-.165c-.12 0-.235.075-.345.225-.1.14-.15.3-.15.48a.8.8 0 0 0 .105.435c.08.1.18.15.3.15s.23-.07.33-.21c.11-.14.165-.3.165-.48zm6.126 2.46c0 1.88-.39 4.32-1.17 7.32-.5 2.04-.85 3.06-1.05 3.06-.14 0-.305-.11-.495-.33-.18-.22-.27-.39-.27-.51s.145-.74.435-1.86c.29-1.12.58-2.495.87-4.125.29-1.64.435-3.115.435-4.425 0-.14.02-.24.06-.3.04-.06.125-.09.255-.09s.315.145.555.435c.25.28.375.555.375.825zm6.707 5.43c0 .53-.29.965-.87 1.305-.57.33-1.22.495-1.95.495-.72 0-1.375-.08-1.965-.24-.14.44-.21.835-.21 1.185 0 .34.105.605.315.795.22.19.575.285 1.065.285.5 0 1.01-.085 1.53-.255.53-.18.82-.27.87-.27.26 0 .39.1.39.3 0 .27-.305.565-.915.885-.61.31-1.205.465-1.785.465-.78 0-1.415-.23-1.905-.69-.49-.47-.735-1.06-.735-1.77s.19-1.45.57-2.22c.38-.78.87-1.435 1.47-1.965s1.195-.795 1.785-.795c.59 0 1.125.28 1.605.84.49.56.735 1.11.735 1.65zM18.95 46.98c-.37 0-.755.195-1.155.585-.4.38-.74.855-1.02 1.425.4.09.855.135 1.365.135s.955-.08 1.335-.24c.38-.17.57-.39.57-.66s-.125-.545-.375-.825c-.24-.28-.48-.42-.72-.42zm7.323-1.185c.34 0 .66.19.96.57.3.37.45.695.45.975 0 .17-.08.255-.24.255-.11 0-.28-.085-.51-.255-.23-.18-.465-.27-.705-.27-.24 0-.62.14-1.14.42-.51.28-.765.575-.765.885 0 .23.46.625 1.38 1.185.35.22.665.505.945.855.29.34.435.71.435 1.11 0 .39-.275.775-.825 1.155-.54.37-1.175.555-1.905.555-.72 0-1.36-.175-1.92-.525-.55-.35-.825-.68-.825-.99 0-.13.03-.23.09-.3.07-.08.155-.12.255-.12s.24.065.42.195c.54.39 1.1.585 1.68.585.59 0 1.015-.065 1.275-.195.26-.14.39-.32.39-.54 0-.23-.145-.47-.435-.72-.29-.26-.61-.49-.96-.69-.34-.2-.655-.445-.945-.735-.29-.29-.435-.585-.435-.885 0-.53.415-1.08 1.245-1.65.84-.58 1.535-.87 2.085-.87zm7.406.42c.04-.16.08-.27.12-.33.04-.06.125-.09.255-.09.14 0 .305.13.495.39.2.26.3.51.3.75 0 .13-.22.9-.66 2.31-.44 1.41-.78 2.53-1.02 3.36-.12.42-.29.63-.51.63a.412.412 0 0 1-.33-.165c-.09-.11-.135-.31-.135-.6s.115-.815.345-1.575c-.42.68-.875 1.24-1.365 1.68-.49.44-.94.66-1.35.66-.4 0-.78-.19-1.14-.57-.36-.38-.54-.77-.54-1.17 0-.95.275-2.135.825-3.555.56-1.43 1.025-2.145 1.395-2.145.18 0 .335.085.465.255.14.16.21.345.21.555 0 .09-.135.415-.405.975-.27.55-.54 1.2-.81 1.95-.27.74-.405 1.39-.405 1.95 0 .16.05.295.15.405.1.1.22.15.36.15.38 0 .83-.335 1.35-1.005.53-.67 1.01-1.45 1.44-2.34.43-.89.75-1.715.96-2.475zm3.382 4.41c.96-1.63 1.74-2.84 2.34-3.63.61-.8 1.105-1.2 1.485-1.2.39 0 .755.205 1.095.615.35.41.525.845.525 1.305 0 .72-.165 1.6-.495 2.64-.6 1.92-1.14 2.88-1.62 2.88-.22 0-.33-.15-.33-.45 0-.21.105-.635.315-1.275.22-.65.42-1.285.6-1.905.19-.63.285-1.1.285-1.41 0-.32-.05-.555-.15-.705-.09-.15-.185-.225-.285-.225-.09 0-.185.03-.285.09-.1.06-.215.16-.345.3-.12.14-.235.28-.345.42-.11.13-.25.32-.42.57-.16.25-.295.465-.405.645-.11.17-.27.42-.48.75-.21.33-.37.58-.48.75-.11.17-.255.4-.435.69-.18.29-.325.515-.435.675-.1.16-.215.335-.345.525-.25.37-.45.555-.6.555-.14 0-.305-.11-.495-.33-.19-.23-.285-.43-.285-.6 0-.05.035-.185.105-.405.19-.58.4-1.295.63-2.145.23-.86.355-1.835.375-2.925.03-.73.135-1.095.315-1.095.22 0 .44.115.66.345.22.23.33.485.33.765 0 .27-.085.8-.255 1.59-.16.78-.35 1.51-.57 2.19zm12.948-9.03c.16 0 .355.15.585.45.24.29.36.565.36.825s-.125 1-.375 2.22c-.25 1.21-.54 2.465-.87 3.765-.72 2.92-1.195 4.38-1.425 4.38-.14 0-.295-.085-.465-.255-.16-.18-.24-.335-.24-.465s.035-.39.105-.78c-.98 1-1.835 1.5-2.565 1.5-.44 0-.84-.2-1.2-.6-.35-.4-.525-.815-.525-1.245 0-.62.165-1.355.495-2.205.34-.86.825-1.64 1.455-2.34.63-.7 1.3-1.05 2.01-1.05.71 0 1.205.425 1.485 1.275.51-2.12.79-3.795.84-5.025 0-.3.11-.45.33-.45zm-1.65 7.365c0-.54-.095-.995-.285-1.365-.18-.37-.4-.555-.66-.555-.43 0-.87.265-1.32.795-.45.53-.81 1.14-1.08 1.83-.26.68-.39 1.27-.39 1.77 0 .18.065.325.195.435.13.11.285.165.465.165.39 0 .915-.28 1.575-.84.67-.56 1.155-1.22 1.455-1.98l.045-.18v-.075z" fill="#CEC297"/><g opacity=".4" stroke="#D1C69C" stroke-linecap="round"><path d="M55.078 100.571c2.075 4.644 10.227 12.064 22.322 8.02"/><path d="m74.57 105.553 3.579 3.34-3.91 3.407" stroke-linejoin="round"/></g><g opacity=".4" stroke="#D1C69C" stroke-linecap="round"><path d="M56.71 49.944c4.463-2.442 15.444-3.417 22.626 7.122"/><path d="m75.245 57.773 4.87-.495-1.052-5.078" stroke-linejoin="round"/></g><g clip-path="url(#b)"><circle cx="87.5" cy="62.5" r="4" fill="#243C2B" stroke="#CEC297"/></g><g clip-path="url(#c)"><circle cx="85.5" cy="104.5" r="4" fill="#243C2B" stroke="#CEC297"/></g></g><defs><clipPath id="a"><path fill="#fff" transform="translate(0 -4)" d="M0 0h230v210H0z"/></clipPath><clipPath id="b"><path fill="#fff" transform="translate(83 58)" d="M0 0h9v9H0z"/></clipPath><clipPath id="c"><path fill="#fff" transform="translate(81 100)" d="M0 0h9v9H0z"/></clipPath></defs></svg>